<svg width="545" height="161" viewBox="0 0 545 161" fill="none" xmlns="http://www.w3.org/2000/svg">
<rect x="362.726" y="26" width="4.24526" height="4.24526" transform="rotate(45 362.726 26)" fill="#E60024" fill-opacity="0.1"/>
<rect x="362.726" y="34.8981" width="4.24526" height="4.24526" transform="rotate(45 362.726 34.8981)" fill="#E60024" fill-opacity="0.1"/>
<rect x="362.726" y="43.8602" width="4.24526" height="4.24526" transform="rotate(45 362.726 43.8602)" fill="#E60024" fill-opacity="0.1"/>
<rect x="375.462" y="26" width="4.24526" height="4.24526" transform="rotate(45 375.462 26)" fill="#E60024" fill-opacity="0.1"/>
<rect x="375.462" y="34.8981" width="4.24526" height="4.24526" transform="rotate(45 375.462 34.8981)" fill="#E60024" fill-opacity="0.1"/>
<rect x="375.462" y="43.8602" width="4.24526" height="4.24526" transform="rotate(45 375.462 43.8602)" fill="#E60024" fill-opacity="0.1"/>
<rect x="388.198" y="26" width="4.24526" height="4.24526" transform="rotate(45 388.198 26)" fill="#E60024" fill-opacity="0.1"/>
<rect x="388.198" y="34.8981" width="4.24526" height="4.24526" transform="rotate(45 388.198 34.8981)" fill="#E60024" fill-opacity="0.1"/>
<rect x="388.198" y="43.8602" width="4.24526" height="4.24526" transform="rotate(45 388.198 43.8602)" fill="#E60024" fill-opacity="0.1"/>
<rect x="400.934" y="26" width="4.24526" height="4.24526" transform="rotate(45 400.934 26)" fill="#E60024" fill-opacity="0.1"/>
<rect x="400.934" y="34.8981" width="4.24526" height="4.24526" transform="rotate(45 400.934 34.8981)" fill="#E60024" fill-opacity="0.1"/>
<rect x="400.934" y="43.8602" width="4.24526" height="4.24526" transform="rotate(45 400.934 43.8602)" fill="#E60024" fill-opacity="0.1"/>
<circle cx="356.358" cy="29.2377" r="2.35848" fill="#E60024" fill-opacity="0.1"/>
<circle cx="356.358" cy="38.1358" r="2.35848" fill="#E60024" fill-opacity="0.1"/>
<circle cx="356.358" cy="47.098" r="2.35848" fill="#E60024" fill-opacity="0.1"/>
<circle cx="369.094" cy="29.2377" r="2.35848" fill="#E60024" fill-opacity="0.1"/>
<circle cx="369.094" cy="38.1358" r="2.35848" fill="#E60024" fill-opacity="0.1"/>
<circle cx="369.094" cy="47.098" r="2.35848" fill="#E60024" fill-opacity="0.1"/>
<circle cx="381.83" cy="29.2377" r="2.35848" fill="#E60024" fill-opacity="0.1"/>
<circle cx="381.83" cy="38.1358" r="2.35848" fill="#E60024" fill-opacity="0.1"/>
<circle cx="381.83" cy="47.098" r="2.35848" fill="#E60024" fill-opacity="0.1"/>
<circle cx="394.566" cy="29.2377" r="2.35848" fill="#E60024" fill-opacity="0.1"/>
<circle cx="394.566" cy="38.1358" r="2.35848" fill="#E60024" fill-opacity="0.1"/>
<circle cx="394.566" cy="47.098" r="2.35848" fill="#E60024" fill-opacity="0.1"/>
<rect x="362.726" width="4.24526" height="4.24526" transform="rotate(45 362.726 0)" fill="#E60024" fill-opacity="0.1"/>
<rect x="362.726" y="8.89807" width="4.24526" height="4.24526" transform="rotate(45 362.726 8.89807)" fill="#E60024" fill-opacity="0.1"/>
<rect x="362.726" y="17.8602" width="4.24526" height="4.24526" transform="rotate(45 362.726 17.8602)" fill="#E60024" fill-opacity="0.1"/>
<rect x="375.462" width="4.24526" height="4.24526" transform="rotate(45 375.462 0)" fill="#E60024" fill-opacity="0.1"/>
<rect x="375.462" y="8.89807" width="4.24526" height="4.24526" transform="rotate(45 375.462 8.89807)" fill="#E60024" fill-opacity="0.1"/>
<rect x="375.462" y="17.8602" width="4.24526" height="4.24526" transform="rotate(45 375.462 17.8602)" fill="#E60024" fill-opacity="0.1"/>
<rect x="388.198" width="4.24526" height="4.24526" transform="rotate(45 388.198 0)" fill="#E60024" fill-opacity="0.1"/>
<rect x="388.198" y="8.89807" width="4.24526" height="4.24526" transform="rotate(45 388.198 8.89807)" fill="#E60024" fill-opacity="0.1"/>
<rect x="388.198" y="17.8602" width="4.24526" height="4.24526" transform="rotate(45 388.198 17.8602)" fill="#E60024" fill-opacity="0.1"/>
<rect x="400.934" width="4.24526" height="4.24526" transform="rotate(45 400.934 0)" fill="#E60024" fill-opacity="0.1"/>
<rect x="400.934" y="8.89807" width="4.24526" height="4.24526" transform="rotate(45 400.934 8.89807)" fill="#E60024" fill-opacity="0.1"/>
<rect x="400.934" y="17.8602" width="4.24526" height="4.24526" transform="rotate(45 400.934 17.8602)" fill="#E60024" fill-opacity="0.1"/>
<circle cx="356.358" cy="3.23775" r="2.35848" fill="#E60024" fill-opacity="0.1"/>
<circle cx="356.358" cy="12.1357" r="2.35848" fill="#E60024" fill-opacity="0.1"/>
<circle cx="356.358" cy="21.098" r="2.35848" fill="#E60024" fill-opacity="0.1"/>
<circle cx="369.094" cy="3.23775" r="2.35848" fill="#E60024" fill-opacity="0.1"/>
<circle cx="369.094" cy="12.1357" r="2.35848" fill="#E60024" fill-opacity="0.1"/>
<circle cx="369.094" cy="21.098" r="2.35848" fill="#E60024" fill-opacity="0.1"/>
<circle cx="381.83" cy="3.23775" r="2.35848" fill="#E60024" fill-opacity="0.1"/>
<circle cx="381.83" cy="12.1357" r="2.35848" fill="#E60024" fill-opacity="0.1"/>
<circle cx="381.83" cy="21.098" r="2.35848" fill="#E60024" fill-opacity="0.1"/>
<circle cx="394.566" cy="3.23775" r="2.35848" fill="#E60024" fill-opacity="0.1"/>
<circle cx="394.566" cy="12.1357" r="2.35848" fill="#E60024" fill-opacity="0.1"/>
<circle cx="394.566" cy="21.098" r="2.35848" fill="#E60024" fill-opacity="0.1"/>
<rect x="362.726" y="52" width="4.24526" height="4.24526" transform="rotate(45 362.726 52)" fill="#E60024" fill-opacity="0.1"/>
<rect x="362.726" y="60.8981" width="4.24526" height="4.24526" transform="rotate(45 362.726 60.8981)" fill="#E60024" fill-opacity="0.1"/>
<rect x="362.726" y="69.8602" width="4.24526" height="4.24526" transform="rotate(45 362.726 69.8602)" fill="#E60024" fill-opacity="0.1"/>
<rect x="375.462" y="52" width="4.24526" height="4.24526" transform="rotate(45 375.462 52)" fill="#E60024" fill-opacity="0.1"/>
<rect x="375.462" y="60.8981" width="4.24526" height="4.24526" transform="rotate(45 375.462 60.8981)" fill="#E60024" fill-opacity="0.1"/>
<rect x="375.462" y="69.8602" width="4.24526" height="4.24526" transform="rotate(45 375.462 69.8602)" fill="#E60024" fill-opacity="0.1"/>
<rect x="388.198" y="52" width="4.24526" height="4.24526" transform="rotate(45 388.198 52)" fill="#E60024" fill-opacity="0.1"/>
<rect x="388.198" y="60.8981" width="4.24526" height="4.24526" transform="rotate(45 388.198 60.8981)" fill="#E60024" fill-opacity="0.1"/>
<rect x="388.198" y="69.8602" width="4.24526" height="4.24526" transform="rotate(45 388.198 69.8602)" fill="#E60024" fill-opacity="0.1"/>
<rect x="400.934" y="52" width="4.24526" height="4.24526" transform="rotate(45 400.934 52)" fill="#E60024" fill-opacity="0.1"/>
<rect x="400.934" y="60.8981" width="4.24526" height="4.24526" transform="rotate(45 400.934 60.8981)" fill="#E60024" fill-opacity="0.1"/>
<rect x="400.934" y="69.8602" width="4.24526" height="4.24526" transform="rotate(45 400.934 69.8602)" fill="#E60024" fill-opacity="0.1"/>
<circle cx="356.358" cy="55.2377" r="2.35848" fill="#E60024" fill-opacity="0.1"/>
<circle cx="356.358" cy="64.1358" r="2.35848" fill="#E60024" fill-opacity="0.1"/>
<circle cx="356.358" cy="73.098" r="2.35848" fill="#E60024" fill-opacity="0.1"/>
<circle cx="369.094" cy="55.2377" r="2.35848" fill="#E60024" fill-opacity="0.1"/>
<circle cx="369.094" cy="64.1358" r="2.35848" fill="#E60024" fill-opacity="0.1"/>
<circle cx="369.094" cy="73.098" r="2.35848" fill="#E60024" fill-opacity="0.1"/>
<circle cx="381.83" cy="55.2377" r="2.35848" fill="#E60024" fill-opacity="0.1"/>
<circle cx="381.83" cy="64.1358" r="2.35848" fill="#E60024" fill-opacity="0.1"/>
<circle cx="381.83" cy="73.098" r="2.35848" fill="#E60024" fill-opacity="0.1"/>
<circle cx="394.566" cy="55.2377" r="2.35848" fill="#E60024" fill-opacity="0.1"/>
<circle cx="394.566" cy="64.1358" r="2.35848" fill="#E60024" fill-opacity="0.1"/>
<circle cx="394.566" cy="73.098" r="2.35848" fill="#E60024" fill-opacity="0.1"/>
<rect x="281.533" y="101.677" width="23" height="23" transform="rotate(28.1665 281.533 101.677)" stroke="#E60024" stroke-opacity="0.49"/>
<rect x="529.095" y="32.6768" width="7.24214" height="7.24214" transform="rotate(28.1665 529.095 32.6768)" stroke="#E60024" stroke-opacity="0.49"/>
<circle cx="544" cy="40" r="0.75" stroke="#E60024" stroke-opacity="0.42" stroke-width="0.5"/>
<path d="M529.444 48.882H529.556H529.692L529.5 49.0678L529.308 48.882H529.444Z" stroke="#E60024" stroke-opacity="0.36"/>
<rect x="153.924" y="144.677" width="11.1149" height="11.1149" transform="rotate(28.1665 153.924 144.677)" stroke="#E60024" stroke-opacity="0.49"/>
<circle cx="3.24316" cy="139.243" r="2.75" stroke="#E60024" stroke-opacity="0.42" stroke-width="0.5"/>
</svg>
