<svg width="1313" height="361" viewBox="0 0 1313 361" fill="none" xmlns="http://www.w3.org/2000/svg">
<rect x="1290.28" y="234" width="103.151" height="20.8248" rx="10.4124" transform="rotate(23.549 1290.28 234)" fill="#E7332B" fill-opacity="0.75"/>
<rect x="1240.44" y="250.232" width="121.687" height="26.4881" rx="13.2441" transform="rotate(23.549 1240.44 250.232)" fill="#E7332B" fill-opacity="0.75"/>
<rect x="1201.58" y="276.595" width="146.437" height="26.4881" rx="13.2441" transform="rotate(23.549 1201.58 276.595)" fill="#E7332B" fill-opacity="0.75"/>
<rect x="8.72638" y="311" width="4.24526" height="4.24526" transform="rotate(45 8.72638 311)" fill="#E60024" fill-opacity="0.1"/>
<rect x="8.72638" y="319.898" width="4.24526" height="4.24526" transform="rotate(45 8.72638 319.898)" fill="#E60024" fill-opacity="0.1"/>
<rect x="8.72638" y="328.86" width="4.24526" height="4.24526" transform="rotate(45 8.72638 328.86)" fill="#E60024" fill-opacity="0.1"/>
<rect x="21.4622" y="311" width="4.24526" height="4.24526" transform="rotate(45 21.4622 311)" fill="#E60024" fill-opacity="0.1"/>
<rect x="21.4622" y="319.898" width="4.24526" height="4.24526" transform="rotate(45 21.4622 319.898)" fill="#E60024" fill-opacity="0.1"/>
<rect x="21.4622" y="328.86" width="4.24526" height="4.24526" transform="rotate(45 21.4622 328.86)" fill="#E60024" fill-opacity="0.1"/>
<rect x="34.1979" y="311" width="4.24526" height="4.24526" transform="rotate(45 34.1979 311)" fill="#E60024" fill-opacity="0.1"/>
<rect x="34.1979" y="319.898" width="4.24526" height="4.24526" transform="rotate(45 34.1979 319.898)" fill="#E60024" fill-opacity="0.1"/>
<rect x="34.1979" y="328.86" width="4.24526" height="4.24526" transform="rotate(45 34.1979 328.86)" fill="#E60024" fill-opacity="0.1"/>
<rect x="46.9337" y="311" width="4.24526" height="4.24526" transform="rotate(45 46.9337 311)" fill="#E60024" fill-opacity="0.1"/>
<rect x="46.9337" y="319.898" width="4.24526" height="4.24526" transform="rotate(45 46.9337 319.898)" fill="#E60024" fill-opacity="0.1"/>
<rect x="46.9337" y="328.86" width="4.24526" height="4.24526" transform="rotate(45 46.9337 328.86)" fill="#E60024" fill-opacity="0.1"/>
<circle cx="2.35848" cy="314.238" r="2.35848" fill="#E60024" fill-opacity="0.1"/>
<circle cx="2.35848" cy="323.136" r="2.35848" fill="#E60024" fill-opacity="0.1"/>
<circle cx="2.35848" cy="332.098" r="2.35848" fill="#E60024" fill-opacity="0.1"/>
<circle cx="15.0943" cy="314.238" r="2.35848" fill="#E60024" fill-opacity="0.1"/>
<circle cx="15.0943" cy="323.136" r="2.35848" fill="#E60024" fill-opacity="0.1"/>
<circle cx="15.0943" cy="332.098" r="2.35848" fill="#E60024" fill-opacity="0.1"/>
<circle cx="27.83" cy="314.238" r="2.35848" fill="#E60024" fill-opacity="0.1"/>
<circle cx="27.83" cy="323.136" r="2.35848" fill="#E60024" fill-opacity="0.1"/>
<circle cx="27.83" cy="332.098" r="2.35848" fill="#E60024" fill-opacity="0.1"/>
<circle cx="40.5658" cy="314.238" r="2.35848" fill="#E60024" fill-opacity="0.1"/>
<circle cx="40.5658" cy="323.136" r="2.35848" fill="#E60024" fill-opacity="0.1"/>
<circle cx="40.5658" cy="332.098" r="2.35848" fill="#E60024" fill-opacity="0.1"/>
<rect x="58.7264" y="311" width="4.24526" height="4.24526" transform="rotate(45 58.7264 311)" fill="#E60024" fill-opacity="0.1"/>
<rect x="58.7264" y="319.898" width="4.24526" height="4.24526" transform="rotate(45 58.7264 319.898)" fill="#E60024" fill-opacity="0.1"/>
<rect x="58.7264" y="328.86" width="4.24526" height="4.24526" transform="rotate(45 58.7264 328.86)" fill="#E60024" fill-opacity="0.1"/>
<rect x="71.4622" y="311" width="4.24526" height="4.24526" transform="rotate(45 71.4622 311)" fill="#E60024" fill-opacity="0.1"/>
<rect x="71.4622" y="319.898" width="4.24526" height="4.24526" transform="rotate(45 71.4622 319.898)" fill="#E60024" fill-opacity="0.1"/>
<rect x="71.4622" y="328.86" width="4.24526" height="4.24526" transform="rotate(45 71.4622 328.86)" fill="#E60024" fill-opacity="0.1"/>
<rect x="84.1979" y="311" width="4.24526" height="4.24526" transform="rotate(45 84.1979 311)" fill="#E60024" fill-opacity="0.1"/>
<rect x="84.1979" y="319.898" width="4.24526" height="4.24526" transform="rotate(45 84.1979 319.898)" fill="#E60024" fill-opacity="0.1"/>
<rect x="84.1979" y="328.86" width="4.24526" height="4.24526" transform="rotate(45 84.1979 328.86)" fill="#E60024" fill-opacity="0.1"/>
<rect x="96.9337" y="311" width="4.24526" height="4.24526" transform="rotate(45 96.9337 311)" fill="#E60024" fill-opacity="0.1"/>
<rect x="96.9337" y="319.898" width="4.24526" height="4.24526" transform="rotate(45 96.9337 319.898)" fill="#E60024" fill-opacity="0.1"/>
<rect x="96.9337" y="328.86" width="4.24526" height="4.24526" transform="rotate(45 96.9337 328.86)" fill="#E60024" fill-opacity="0.1"/>
<circle cx="52.3585" cy="314.238" r="2.35848" fill="#E60024" fill-opacity="0.1"/>
<circle cx="52.3585" cy="323.136" r="2.35848" fill="#E60024" fill-opacity="0.1"/>
<circle cx="52.3585" cy="332.098" r="2.35848" fill="#E60024" fill-opacity="0.1"/>
<circle cx="65.0943" cy="314.238" r="2.35848" fill="#E60024" fill-opacity="0.1"/>
<circle cx="65.0943" cy="323.136" r="2.35848" fill="#E60024" fill-opacity="0.1"/>
<circle cx="65.0943" cy="332.098" r="2.35848" fill="#E60024" fill-opacity="0.1"/>
<circle cx="77.83" cy="314.238" r="2.35848" fill="#E60024" fill-opacity="0.1"/>
<circle cx="77.83" cy="323.136" r="2.35848" fill="#E60024" fill-opacity="0.1"/>
<circle cx="77.83" cy="332.098" r="2.35848" fill="#E60024" fill-opacity="0.1"/>
<circle cx="90.5658" cy="314.238" r="2.35848" fill="#E60024" fill-opacity="0.1"/>
<circle cx="90.5658" cy="323.136" r="2.35848" fill="#E60024" fill-opacity="0.1"/>
<circle cx="90.5658" cy="332.098" r="2.35848" fill="#E60024" fill-opacity="0.1"/>
<rect x="8.72638" y="285" width="4.24526" height="4.24526" transform="rotate(45 8.72638 285)" fill="#E60024" fill-opacity="0.1"/>
<rect x="8.72638" y="293.898" width="4.24526" height="4.24526" transform="rotate(45 8.72638 293.898)" fill="#E60024" fill-opacity="0.1"/>
<rect x="8.72638" y="302.86" width="4.24526" height="4.24526" transform="rotate(45 8.72638 302.86)" fill="#E60024" fill-opacity="0.1"/>
<rect x="21.4622" y="285" width="4.24526" height="4.24526" transform="rotate(45 21.4622 285)" fill="#E60024" fill-opacity="0.1"/>
<rect x="21.4622" y="293.898" width="4.24526" height="4.24526" transform="rotate(45 21.4622 293.898)" fill="#E60024" fill-opacity="0.1"/>
<rect x="21.4622" y="302.86" width="4.24526" height="4.24526" transform="rotate(45 21.4622 302.86)" fill="#E60024" fill-opacity="0.1"/>
<rect x="34.1979" y="285" width="4.24526" height="4.24526" transform="rotate(45 34.1979 285)" fill="#E60024" fill-opacity="0.1"/>
<rect x="34.1979" y="293.898" width="4.24526" height="4.24526" transform="rotate(45 34.1979 293.898)" fill="#E60024" fill-opacity="0.1"/>
<rect x="34.1979" y="302.86" width="4.24526" height="4.24526" transform="rotate(45 34.1979 302.86)" fill="#E60024" fill-opacity="0.1"/>
<rect x="46.9337" y="285" width="4.24526" height="4.24526" transform="rotate(45 46.9337 285)" fill="#E60024" fill-opacity="0.1"/>
<rect x="46.9337" y="293.898" width="4.24526" height="4.24526" transform="rotate(45 46.9337 293.898)" fill="#E60024" fill-opacity="0.1"/>
<rect x="46.9337" y="302.86" width="4.24526" height="4.24526" transform="rotate(45 46.9337 302.86)" fill="#E60024" fill-opacity="0.1"/>
<circle cx="2.35848" cy="288.238" r="2.35848" fill="#E60024" fill-opacity="0.1"/>
<circle cx="2.35848" cy="297.136" r="2.35848" fill="#E60024" fill-opacity="0.1"/>
<circle cx="2.35848" cy="306.098" r="2.35848" fill="#E60024" fill-opacity="0.1"/>
<circle cx="15.0943" cy="288.238" r="2.35848" fill="#E60024" fill-opacity="0.1"/>
<circle cx="15.0943" cy="297.136" r="2.35848" fill="#E60024" fill-opacity="0.1"/>
<circle cx="15.0943" cy="306.098" r="2.35848" fill="#E60024" fill-opacity="0.1"/>
<circle cx="27.83" cy="288.238" r="2.35848" fill="#E60024" fill-opacity="0.1"/>
<circle cx="27.83" cy="297.136" r="2.35848" fill="#E60024" fill-opacity="0.1"/>
<circle cx="27.83" cy="306.098" r="2.35848" fill="#E60024" fill-opacity="0.1"/>
<circle cx="40.5658" cy="288.238" r="2.35848" fill="#E60024" fill-opacity="0.1"/>
<circle cx="40.5658" cy="297.136" r="2.35848" fill="#E60024" fill-opacity="0.1"/>
<circle cx="40.5658" cy="306.098" r="2.35848" fill="#E60024" fill-opacity="0.1"/>
<rect x="58.7264" y="285" width="4.24526" height="4.24526" transform="rotate(45 58.7264 285)" fill="#E60024" fill-opacity="0.1"/>
<rect x="58.7264" y="293.898" width="4.24526" height="4.24526" transform="rotate(45 58.7264 293.898)" fill="#E60024" fill-opacity="0.1"/>
<rect x="58.7264" y="302.86" width="4.24526" height="4.24526" transform="rotate(45 58.7264 302.86)" fill="#E60024" fill-opacity="0.1"/>
<rect x="71.4622" y="285" width="4.24526" height="4.24526" transform="rotate(45 71.4622 285)" fill="#E60024" fill-opacity="0.1"/>
<rect x="71.4622" y="293.898" width="4.24526" height="4.24526" transform="rotate(45 71.4622 293.898)" fill="#E60024" fill-opacity="0.1"/>
<rect x="71.4622" y="302.86" width="4.24526" height="4.24526" transform="rotate(45 71.4622 302.86)" fill="#E60024" fill-opacity="0.1"/>
<rect x="84.1979" y="285" width="4.24526" height="4.24526" transform="rotate(45 84.1979 285)" fill="#E60024" fill-opacity="0.1"/>
<rect x="84.1979" y="293.898" width="4.24526" height="4.24526" transform="rotate(45 84.1979 293.898)" fill="#E60024" fill-opacity="0.1"/>
<rect x="84.1979" y="302.86" width="4.24526" height="4.24526" transform="rotate(45 84.1979 302.86)" fill="#E60024" fill-opacity="0.1"/>
<rect x="96.9337" y="285" width="4.24526" height="4.24526" transform="rotate(45 96.9337 285)" fill="#E60024" fill-opacity="0.1"/>
<rect x="96.9337" y="293.898" width="4.24526" height="4.24526" transform="rotate(45 96.9337 293.898)" fill="#E60024" fill-opacity="0.1"/>
<rect x="96.9337" y="302.86" width="4.24526" height="4.24526" transform="rotate(45 96.9337 302.86)" fill="#E60024" fill-opacity="0.1"/>
<circle cx="52.3585" cy="288.238" r="2.35848" fill="#E60024" fill-opacity="0.1"/>
<circle cx="52.3585" cy="297.136" r="2.35848" fill="#E60024" fill-opacity="0.1"/>
<circle cx="52.3585" cy="306.098" r="2.35848" fill="#E60024" fill-opacity="0.1"/>
<circle cx="65.0943" cy="288.238" r="2.35848" fill="#E60024" fill-opacity="0.1"/>
<circle cx="65.0943" cy="297.136" r="2.35848" fill="#E60024" fill-opacity="0.1"/>
<circle cx="65.0943" cy="306.098" r="2.35848" fill="#E60024" fill-opacity="0.1"/>
<circle cx="77.83" cy="288.238" r="2.35848" fill="#E60024" fill-opacity="0.1"/>
<circle cx="77.83" cy="297.136" r="2.35848" fill="#E60024" fill-opacity="0.1"/>
<circle cx="77.83" cy="306.098" r="2.35848" fill="#E60024" fill-opacity="0.1"/>
<circle cx="90.5658" cy="288.238" r="2.35848" fill="#E60024" fill-opacity="0.1"/>
<circle cx="90.5658" cy="297.136" r="2.35848" fill="#E60024" fill-opacity="0.1"/>
<circle cx="90.5658" cy="306.098" r="2.35848" fill="#E60024" fill-opacity="0.1"/>
<rect x="8.72638" y="337" width="4.24526" height="4.24526" transform="rotate(45 8.72638 337)" fill="#E60024" fill-opacity="0.1"/>
<rect x="8.72638" y="345.898" width="4.24526" height="4.24526" transform="rotate(45 8.72638 345.898)" fill="#E60024" fill-opacity="0.1"/>
<rect x="8.72638" y="354.86" width="4.24526" height="4.24526" transform="rotate(45 8.72638 354.86)" fill="#E60024" fill-opacity="0.1"/>
<rect x="21.4622" y="337" width="4.24526" height="4.24526" transform="rotate(45 21.4622 337)" fill="#E60024" fill-opacity="0.1"/>
<rect x="21.4622" y="345.898" width="4.24526" height="4.24526" transform="rotate(45 21.4622 345.898)" fill="#E60024" fill-opacity="0.1"/>
<rect x="21.4622" y="354.86" width="4.24526" height="4.24526" transform="rotate(45 21.4622 354.86)" fill="#E60024" fill-opacity="0.1"/>
<rect x="34.1979" y="337" width="4.24526" height="4.24526" transform="rotate(45 34.1979 337)" fill="#E60024" fill-opacity="0.1"/>
<rect x="34.1979" y="345.898" width="4.24526" height="4.24526" transform="rotate(45 34.1979 345.898)" fill="#E60024" fill-opacity="0.1"/>
<rect x="34.1979" y="354.86" width="4.24526" height="4.24526" transform="rotate(45 34.1979 354.86)" fill="#E60024" fill-opacity="0.1"/>
<rect x="46.9337" y="337" width="4.24526" height="4.24526" transform="rotate(45 46.9337 337)" fill="#E60024" fill-opacity="0.1"/>
<rect x="46.9337" y="345.898" width="4.24526" height="4.24526" transform="rotate(45 46.9337 345.898)" fill="#E60024" fill-opacity="0.1"/>
<rect x="46.9337" y="354.86" width="4.24526" height="4.24526" transform="rotate(45 46.9337 354.86)" fill="#E60024" fill-opacity="0.1"/>
<circle cx="2.35848" cy="340.238" r="2.35848" fill="#E60024" fill-opacity="0.1"/>
<circle cx="2.35848" cy="349.136" r="2.35848" fill="#E60024" fill-opacity="0.1"/>
<circle cx="2.35848" cy="358.098" r="2.35848" fill="#E60024" fill-opacity="0.1"/>
<circle cx="15.0943" cy="340.238" r="2.35848" fill="#E60024" fill-opacity="0.1"/>
<circle cx="15.0943" cy="349.136" r="2.35848" fill="#E60024" fill-opacity="0.1"/>
<circle cx="15.0943" cy="358.098" r="2.35848" fill="#E60024" fill-opacity="0.1"/>
<circle cx="27.83" cy="340.238" r="2.35848" fill="#E60024" fill-opacity="0.1"/>
<circle cx="27.83" cy="349.136" r="2.35848" fill="#E60024" fill-opacity="0.1"/>
<circle cx="27.83" cy="358.098" r="2.35848" fill="#E60024" fill-opacity="0.1"/>
<circle cx="40.5658" cy="340.238" r="2.35848" fill="#E60024" fill-opacity="0.1"/>
<circle cx="40.5658" cy="349.136" r="2.35848" fill="#E60024" fill-opacity="0.1"/>
<circle cx="40.5658" cy="358.098" r="2.35848" fill="#E60024" fill-opacity="0.1"/>
<rect x="58.7264" y="337" width="4.24526" height="4.24526" transform="rotate(45 58.7264 337)" fill="#E60024" fill-opacity="0.1"/>
<rect x="58.7264" y="345.898" width="4.24526" height="4.24526" transform="rotate(45 58.7264 345.898)" fill="#E60024" fill-opacity="0.1"/>
<rect x="58.7264" y="354.86" width="4.24526" height="4.24526" transform="rotate(45 58.7264 354.86)" fill="#E60024" fill-opacity="0.1"/>
<rect x="71.4622" y="337" width="4.24526" height="4.24526" transform="rotate(45 71.4622 337)" fill="#E60024" fill-opacity="0.1"/>
<rect x="71.4622" y="345.898" width="4.24526" height="4.24526" transform="rotate(45 71.4622 345.898)" fill="#E60024" fill-opacity="0.1"/>
<rect x="71.4622" y="354.86" width="4.24526" height="4.24526" transform="rotate(45 71.4622 354.86)" fill="#E60024" fill-opacity="0.1"/>
<rect x="84.1979" y="337" width="4.24526" height="4.24526" transform="rotate(45 84.1979 337)" fill="#E60024" fill-opacity="0.1"/>
<rect x="84.1979" y="345.898" width="4.24526" height="4.24526" transform="rotate(45 84.1979 345.898)" fill="#E60024" fill-opacity="0.1"/>
<rect x="84.1979" y="354.86" width="4.24526" height="4.24526" transform="rotate(45 84.1979 354.86)" fill="#E60024" fill-opacity="0.1"/>
<rect x="96.9337" y="337" width="4.24526" height="4.24526" transform="rotate(45 96.9337 337)" fill="#E60024" fill-opacity="0.1"/>
<rect x="96.9337" y="345.898" width="4.24526" height="4.24526" transform="rotate(45 96.9337 345.898)" fill="#E60024" fill-opacity="0.1"/>
<rect x="96.9337" y="354.86" width="4.24526" height="4.24526" transform="rotate(45 96.9337 354.86)" fill="#E60024" fill-opacity="0.1"/>
<circle cx="52.3585" cy="340.238" r="2.35848" fill="#E60024" fill-opacity="0.1"/>
<circle cx="52.3585" cy="349.136" r="2.35848" fill="#E60024" fill-opacity="0.1"/>
<circle cx="52.3585" cy="358.098" r="2.35848" fill="#E60024" fill-opacity="0.1"/>
<circle cx="65.0943" cy="340.238" r="2.35848" fill="#E60024" fill-opacity="0.1"/>
<circle cx="65.0943" cy="349.136" r="2.35848" fill="#E60024" fill-opacity="0.1"/>
<circle cx="65.0943" cy="358.098" r="2.35848" fill="#E60024" fill-opacity="0.1"/>
<circle cx="77.83" cy="340.238" r="2.35848" fill="#E60024" fill-opacity="0.1"/>
<circle cx="77.83" cy="349.136" r="2.35848" fill="#E60024" fill-opacity="0.1"/>
<circle cx="77.83" cy="358.098" r="2.35848" fill="#E60024" fill-opacity="0.1"/>
<circle cx="90.5658" cy="340.238" r="2.35848" fill="#E60024" fill-opacity="0.1"/>
<circle cx="90.5658" cy="349.136" r="2.35848" fill="#E60024" fill-opacity="0.1"/>
<circle cx="90.5658" cy="358.098" r="2.35848" fill="#E60024" fill-opacity="0.1"/>
<rect x="343.533" y="205.677" width="23" height="23" transform="rotate(28.1665 343.533 205.677)" stroke="#E60024" stroke-opacity="0.49"/>
<circle cx="372.243" cy="243.243" r="2.75" stroke="#E60024" stroke-opacity="0.42" stroke-width="0.5"/>
<ellipse cx="417.336" cy="275" rx="1.5" ry="1" fill="#E60024" fill-opacity="0.42"/>
<path d="M336.743 261.861L337.278 263.507L337.39 263.853H337.753H339.484L338.084 264.87L337.79 265.084L337.902 265.429L338.437 267.075L337.037 266.058L336.743 265.844L336.449 266.058L335.049 267.075L335.584 265.429L335.696 265.084L335.402 264.87L334.002 263.853H335.733H336.096L336.208 263.507L336.743 261.861Z" stroke="#E60024" stroke-opacity="0.36"/>
<rect x="774.823" y="0.0354004" width="4.24526" height="4.24526" transform="rotate(45.2324 774.823 0.0354004)" fill="#E60024" fill-opacity="0.1"/>
<rect x="774.787" y="8.93338" width="4.24526" height="4.24526" transform="rotate(45.2324 774.787 8.93338)" fill="#E60024" fill-opacity="0.1"/>
<rect x="774.751" y="17.8955" width="4.24526" height="4.24526" transform="rotate(45.2324 774.751 17.8955)" fill="#E60024" fill-opacity="0.1"/>
<rect x="787.559" y="0.0870667" width="4.24526" height="4.24526" transform="rotate(45.2324 787.559 0.0870667)" fill="#E60024" fill-opacity="0.1"/>
<rect x="787.523" y="8.98505" width="4.24526" height="4.24526" transform="rotate(45.2324 787.523 8.98505)" fill="#E60024" fill-opacity="0.1"/>
<rect x="787.486" y="17.9472" width="4.24526" height="4.24526" transform="rotate(45.2324 787.486 17.9472)" fill="#E60024" fill-opacity="0.1"/>
<rect x="800.294" y="0.138733" width="4.24526" height="4.24526" transform="rotate(45.2324 800.294 0.138733)" fill="#E60024" fill-opacity="0.1"/>
<rect x="800.258" y="9.03671" width="4.24526" height="4.24526" transform="rotate(45.2324 800.258 9.03671)" fill="#E60024" fill-opacity="0.1"/>
<rect x="800.222" y="17.9988" width="4.24526" height="4.24526" transform="rotate(45.2324 800.222 17.9988)" fill="#E60024" fill-opacity="0.1"/>
<rect x="813.03" y="0.190399" width="4.24526" height="4.24526" transform="rotate(45.2324 813.03 0.190399)" fill="#E60024" fill-opacity="0.1"/>
<rect x="812.994" y="9.08838" width="4.24526" height="4.24526" transform="rotate(45.2324 812.994 9.08838)" fill="#E60024" fill-opacity="0.1"/>
<rect x="812.958" y="18.0505" width="4.24526" height="4.24526" transform="rotate(45.2324 812.958 18.0505)" fill="#E60024" fill-opacity="0.1"/>
<circle cx="768.442" cy="3.24724" r="2.35848" transform="rotate(0.232434 768.442 3.24724)" fill="#E60024" fill-opacity="0.1"/>
<circle cx="768.406" cy="12.1452" r="2.35848" transform="rotate(0.232434 768.406 12.1452)" fill="#E60024" fill-opacity="0.1"/>
<circle cx="768.37" cy="21.1073" r="2.35848" transform="rotate(0.232434 768.37 21.1073)" fill="#E60024" fill-opacity="0.1"/>
<circle cx="781.178" cy="3.2989" r="2.35848" transform="rotate(0.232434 781.178 3.2989)" fill="#E60024" fill-opacity="0.1"/>
<circle cx="781.142" cy="12.1969" r="2.35848" transform="rotate(0.232434 781.142 12.1969)" fill="#E60024" fill-opacity="0.1"/>
<circle cx="781.105" cy="21.159" r="2.35848" transform="rotate(0.232434 781.105 21.159)" fill="#E60024" fill-opacity="0.1"/>
<circle cx="793.913" cy="3.35057" r="2.35848" transform="rotate(0.232434 793.913 3.35057)" fill="#E60024" fill-opacity="0.1"/>
<circle cx="793.877" cy="12.2485" r="2.35848" transform="rotate(0.232434 793.877 12.2485)" fill="#E60024" fill-opacity="0.1"/>
<circle cx="793.841" cy="21.2107" r="2.35848" transform="rotate(0.232434 793.841 21.2107)" fill="#E60024" fill-opacity="0.1"/>
<circle cx="806.649" cy="3.40224" r="2.35848" transform="rotate(0.232434 806.649 3.40224)" fill="#E60024" fill-opacity="0.1"/>
<circle cx="806.613" cy="12.3002" r="2.35848" transform="rotate(0.232434 806.613 12.3002)" fill="#E60024" fill-opacity="0.1"/>
<circle cx="806.577" cy="21.2623" r="2.35848" transform="rotate(0.232434 806.577 21.2623)" fill="#E60024" fill-opacity="0.1"/>
<rect x="771.823" y="240.035" width="4.24526" height="4.24526" transform="rotate(45.2324 771.823 240.035)" fill="#E60024" fill-opacity="0.1"/>
<rect x="771.787" y="248.933" width="4.24526" height="4.24526" transform="rotate(45.2324 771.787 248.933)" fill="#E60024" fill-opacity="0.1"/>
<rect x="771.751" y="257.896" width="4.24526" height="4.24526" transform="rotate(45.2324 771.751 257.896)" fill="#E60024" fill-opacity="0.1"/>
<rect x="784.559" y="240.087" width="4.24526" height="4.24526" transform="rotate(45.2324 784.559 240.087)" fill="#E60024" fill-opacity="0.1"/>
<rect x="784.523" y="248.985" width="4.24526" height="4.24526" transform="rotate(45.2324 784.523 248.985)" fill="#E60024" fill-opacity="0.1"/>
<rect x="784.486" y="257.947" width="4.24526" height="4.24526" transform="rotate(45.2324 784.486 257.947)" fill="#E60024" fill-opacity="0.1"/>
<rect x="797.294" y="240.139" width="4.24526" height="4.24526" transform="rotate(45.2324 797.294 240.139)" fill="#E60024" fill-opacity="0.1"/>
<rect x="797.258" y="249.037" width="4.24526" height="4.24526" transform="rotate(45.2324 797.258 249.037)" fill="#E60024" fill-opacity="0.1"/>
<rect x="797.222" y="257.999" width="4.24526" height="4.24526" transform="rotate(45.2324 797.222 257.999)" fill="#E60024" fill-opacity="0.1"/>
<rect x="810.03" y="240.19" width="4.24526" height="4.24526" transform="rotate(45.2324 810.03 240.19)" fill="#E60024" fill-opacity="0.1"/>
<rect x="809.994" y="249.088" width="4.24526" height="4.24526" transform="rotate(45.2324 809.994 249.088)" fill="#E60024" fill-opacity="0.1"/>
<rect x="809.958" y="258.051" width="4.24526" height="4.24526" transform="rotate(45.2324 809.958 258.051)" fill="#E60024" fill-opacity="0.1"/>
<circle cx="765.442" cy="243.247" r="2.35848" transform="rotate(0.232434 765.442 243.247)" fill="#E60024" fill-opacity="0.1"/>
<circle cx="765.406" cy="252.145" r="2.35848" transform="rotate(0.232434 765.406 252.145)" fill="#E60024" fill-opacity="0.1"/>
<circle cx="765.37" cy="261.107" r="2.35848" transform="rotate(0.232434 765.37 261.107)" fill="#E60024" fill-opacity="0.1"/>
<circle cx="778.178" cy="243.299" r="2.35848" transform="rotate(0.232434 778.178 243.299)" fill="#E60024" fill-opacity="0.1"/>
<circle cx="778.142" cy="252.197" r="2.35848" transform="rotate(0.232434 778.142 252.197)" fill="#E60024" fill-opacity="0.1"/>
<circle cx="778.105" cy="261.159" r="2.35848" transform="rotate(0.232434 778.105 261.159)" fill="#E60024" fill-opacity="0.1"/>
<circle cx="790.913" cy="243.351" r="2.35848" transform="rotate(0.232434 790.913 243.351)" fill="#E60024" fill-opacity="0.1"/>
<circle cx="790.877" cy="252.249" r="2.35848" transform="rotate(0.232434 790.877 252.249)" fill="#E60024" fill-opacity="0.1"/>
<circle cx="790.841" cy="261.211" r="2.35848" transform="rotate(0.232434 790.841 261.211)" fill="#E60024" fill-opacity="0.1"/>
<circle cx="803.649" cy="243.402" r="2.35848" transform="rotate(0.232434 803.649 243.402)" fill="#E60024" fill-opacity="0.1"/>
<circle cx="803.613" cy="252.3" r="2.35848" transform="rotate(0.232434 803.613 252.3)" fill="#E60024" fill-opacity="0.1"/>
<circle cx="803.577" cy="261.262" r="2.35848" transform="rotate(0.232434 803.577 261.262)" fill="#E60024" fill-opacity="0.1"/>
</svg>
