<svg width="82" height="19" viewBox="0 0 82 19" fill="none" xmlns="http://www.w3.org/2000/svg">
<path opacity="0.1" fill-rule="evenodd" clip-rule="evenodd" d="M0 9.5C0 4.52944 4.02944 0.5 9 0.5C13.9706 0.5 18 4.52944 18 9.5C18 14.4706 13.9706 18.5 9 18.5C4.02944 18.5 0 14.4706 0 9.5Z" fill="#D87E7E"/>
<path fill-rule="evenodd" clip-rule="evenodd" d="M9.00046 4.69995C7.69685 4.69995 7.53325 4.70565 7.02124 4.72895C6.51024 4.75235 6.16143 4.83325 5.85623 4.95195C5.54053 5.07456 5.27272 5.23856 5.00592 5.50546C4.73892 5.77226 4.57492 6.04006 4.45191 6.35567C4.33291 6.66097 4.25191 7.00988 4.22891 7.52068C4.20601 8.03269 4.20001 8.19639 4.20001 9.5C4.20001 10.8036 4.20581 10.9667 4.22901 11.4787C4.25251 11.9897 4.33341 12.3385 4.45201 12.6437C4.57472 12.9594 4.73872 13.2272 5.00562 13.494C5.27232 13.761 5.54013 13.9254 5.85563 14.048C6.16103 14.1667 6.50994 14.2477 7.02084 14.2711C7.53285 14.2944 7.69635 14.3001 8.99986 14.3001C10.3036 14.3001 10.4667 14.2944 10.9787 14.2711C11.4897 14.2477 11.8389 14.1667 12.1443 14.048C12.4599 13.9254 12.7273 13.761 12.994 13.494C13.261 13.2272 13.425 12.9594 13.548 12.6438C13.666 12.3385 13.747 11.9896 13.771 11.4788C13.794 10.9668 13.8 10.8036 13.8 9.5C13.8 8.19639 13.794 8.03279 13.771 7.52078C13.747 7.00977 13.666 6.66097 13.548 6.35577C13.425 6.04007 13.261 5.77226 12.994 5.50546C12.727 5.23846 12.46 5.07446 12.144 4.95195C11.838 4.83325 11.489 4.75235 10.978 4.72895C10.466 4.70565 10.303 4.69995 8.99896 4.69995H9.00046ZM8.56984 5.56495C8.69764 5.56475 8.84024 5.56495 9.00044 5.56495C10.2821 5.56495 10.434 5.56955 10.9401 5.59255C11.4081 5.61395 11.6621 5.69215 11.8313 5.75785C12.0553 5.84485 12.215 5.94885 12.3829 6.11685C12.5509 6.28485 12.6549 6.44486 12.7421 6.66886C12.8078 6.83786 12.8861 7.09186 12.9074 7.55987C12.9304 8.06587 12.9354 8.21787 12.9354 9.49889C12.9354 10.7799 12.9304 10.9319 12.9074 11.4379C12.886 11.9059 12.8078 12.1599 12.7421 12.3289C12.6551 12.5529 12.5509 12.7124 12.3829 12.8803C12.2149 13.0483 12.0554 13.1523 11.8313 13.2393C11.6623 13.3053 11.4081 13.3833 10.9401 13.4047C10.4341 13.4277 10.2821 13.4327 9.00044 13.4327C7.71873 13.4327 7.56683 13.4277 7.06082 13.4047C6.59282 13.3831 6.33881 13.3049 6.16951 13.2392C5.94551 13.1522 5.78551 13.0482 5.61751 12.8802C5.4495 12.7122 5.3455 12.5526 5.2583 12.3285C5.1926 12.1595 5.1143 11.9055 5.093 11.4375C5.07 10.9315 5.0654 10.7795 5.0654 9.49769C5.0654 8.21587 5.07 8.06467 5.093 7.55867C5.1144 7.09066 5.1926 6.83666 5.2583 6.66746C5.3453 6.44346 5.4495 6.28345 5.61751 6.11545C5.78551 5.94745 5.94551 5.84345 6.16951 5.75625C6.33871 5.69025 6.59282 5.61225 7.06082 5.59075C7.50363 5.57075 7.67523 5.56475 8.56984 5.56375V5.56495ZM11.5627 6.36196C11.2447 6.36196 10.9867 6.61966 10.9867 6.93776C10.9867 7.25577 11.2447 7.51377 11.5627 7.51377C11.8807 7.51377 12.1387 7.25577 12.1387 6.93776C12.1387 6.61976 11.8807 6.36196 11.5627 6.36196ZM9.00047 7.03496C7.63916 7.03496 6.53544 8.13867 6.53544 9.49999C6.53544 10.8613 7.63916 11.9645 9.00047 11.9645C10.3618 11.9645 11.4651 10.8613 11.4651 9.49999C11.4651 8.13867 10.3618 7.03496 9.00047 7.03496ZM9.00045 7.89997C9.88406 7.89997 10.6005 8.61628 10.6005 9.49999C10.6005 10.3836 9.88406 11.1 9.00045 11.1C8.11674 11.1 7.40043 10.3836 7.40043 9.49999C7.40043 8.61628 8.11674 7.89997 9.00045 7.89997Z" fill="#D87E7E"/>
<path d="M26.96 14H27.842V5.36H26.96V14ZM29.6348 14H30.5228V10.544C30.5228 9.812 30.6868 9.238 31.0148 8.822C31.3428 8.406 31.8188 8.198 32.4428 8.198C32.8948 8.198 33.2588 8.308 33.5348 8.528C33.8108 8.744 34.0108 9.04 34.1348 9.416C34.2588 9.792 34.3208 10.218 34.3208 10.694V14H35.2088V10.436C35.2088 10.072 35.1628 9.708 35.0708 9.344C34.9828 8.98 34.8388 8.648 34.6388 8.348C34.4388 8.048 34.1728 7.808 33.8408 7.628C33.5088 7.448 33.0988 7.358 32.6108 7.358C32.1468 7.358 31.7268 7.448 31.3508 7.628C30.9788 7.804 30.6728 8.068 30.4328 8.42V7.52H29.6348V14ZM39.1838 14.174C39.9798 14.174 40.6038 14 41.0558 13.652C41.5118 13.3 41.7398 12.818 41.7398 12.206C41.7398 11.87 41.6678 11.588 41.5238 11.36C41.3838 11.132 41.1418 10.934 40.7978 10.766C40.4578 10.598 39.9898 10.438 39.3938 10.286C38.8858 10.158 38.4938 10.04 38.2178 9.932C37.9458 9.824 37.7578 9.71 37.6538 9.59C37.5498 9.466 37.4978 9.318 37.4978 9.146C37.4978 8.838 37.6418 8.592 37.9298 8.408C38.2178 8.224 38.5918 8.136 39.0518 8.144C39.5398 8.152 39.9418 8.268 40.2578 8.492C40.5738 8.712 40.7638 9.012 40.8278 9.392L41.7278 9.23C41.6838 8.854 41.5438 8.524 41.3078 8.24C41.0718 7.956 40.7598 7.736 40.3718 7.58C39.9878 7.42 39.5518 7.34 39.0638 7.34C38.5758 7.34 38.1458 7.418 37.7738 7.574C37.4058 7.726 37.1178 7.942 36.9098 8.222C36.7058 8.498 36.6038 8.82 36.6038 9.188C36.6038 9.488 36.6718 9.744 36.8078 9.956C36.9478 10.164 37.1858 10.35 37.5218 10.514C37.8578 10.674 38.3178 10.834 38.9018 10.994C39.4498 11.142 39.8598 11.27 40.1318 11.378C40.4078 11.486 40.5918 11.604 40.6838 11.732C40.7758 11.856 40.8218 12.018 40.8218 12.218C40.8218 12.57 40.6798 12.85 40.3958 13.058C40.1118 13.266 39.7238 13.37 39.2318 13.37C38.7278 13.37 38.3038 13.262 37.9598 13.046C37.6158 12.826 37.3978 12.532 37.3058 12.164L36.4058 12.314C36.5178 12.898 36.8178 13.354 37.3058 13.682C37.7978 14.01 38.4238 14.174 39.1838 14.174ZM46.5985 14V13.226C46.1345 13.302 45.7445 13.314 45.4285 13.262C45.1165 13.21 44.8885 13.05 44.7445 12.782C44.6685 12.642 44.6265 12.482 44.6185 12.302C44.6145 12.118 44.6125 11.89 44.6125 11.618V8.276H46.5985V7.52H44.6125V5.72H43.7365V7.52H42.3505V8.276H43.7365V11.654C43.7365 11.97 43.7405 12.252 43.7485 12.5C43.7605 12.748 43.8245 12.99 43.9405 13.226C44.0845 13.514 44.2945 13.726 44.5705 13.862C44.8505 13.998 45.1665 14.074 45.5185 14.09C45.8745 14.106 46.2345 14.076 46.5985 14ZM49.7292 14.18C50.8612 14.18 51.6832 13.762 52.1952 12.926V14H52.9812V9.974C52.9812 9.734 52.9692 9.498 52.9452 9.266C52.9212 9.034 52.8692 8.824 52.7892 8.636C52.6172 8.216 52.3232 7.896 51.9072 7.676C51.4952 7.452 50.9932 7.34 50.4012 7.34C49.6892 7.34 49.1092 7.5 48.6612 7.82C48.2132 8.14 47.9132 8.59 47.7612 9.17L48.6192 9.422C48.7432 8.99 48.9572 8.674 49.2612 8.474C49.5692 8.274 49.9452 8.174 50.3892 8.174C51.0052 8.174 51.4452 8.318 51.7092 8.606C51.9732 8.89 52.1092 9.324 52.1172 9.908C51.8292 9.948 51.5112 9.99 51.1632 10.034C50.8192 10.078 50.4732 10.128 50.1252 10.184C49.7772 10.24 49.4572 10.304 49.1652 10.376C48.6812 10.504 48.2852 10.718 47.9772 11.018C47.6692 11.314 47.5152 11.728 47.5152 12.26C47.5152 12.604 47.5972 12.922 47.7612 13.214C47.9252 13.506 48.1712 13.74 48.4992 13.916C48.8312 14.092 49.2412 14.18 49.7292 14.18ZM49.8312 13.418C49.4832 13.418 49.2032 13.362 48.9912 13.25C48.7832 13.134 48.6312 12.988 48.5352 12.812C48.4432 12.632 48.3972 12.448 48.3972 12.26C48.3972 11.908 48.5152 11.644 48.7512 11.468C48.9872 11.292 49.2432 11.164 49.5192 11.084C49.8752 10.988 50.2892 10.91 50.7612 10.85C51.2332 10.79 51.6812 10.734 52.1052 10.682C52.1052 10.83 52.0992 11 52.0872 11.192C52.0792 11.38 52.0572 11.554 52.0212 11.714C51.9372 12.202 51.7052 12.608 51.3252 12.932C50.9492 13.256 50.4512 13.418 49.8312 13.418ZM57.0571 14.18C57.4931 14.18 57.8811 14.096 58.2211 13.928C58.5611 13.76 58.8471 13.528 59.0791 13.232V13.898C59.0831 14.658 58.9331 15.232 58.6291 15.62C58.3251 16.008 57.8211 16.202 57.1171 16.202C56.7771 16.202 56.4431 16.122 56.1151 15.962C55.7871 15.806 55.5351 15.548 55.3591 15.188L54.5611 15.632C54.8371 16.136 55.2071 16.5 55.6711 16.724C56.1391 16.948 56.6211 17.06 57.1171 17.06C57.9091 17.06 58.5411 16.888 59.0131 16.544C59.4851 16.2 59.7791 15.666 59.8951 14.942C59.9231 14.778 59.9411 14.61 59.9491 14.438C59.9611 14.27 59.9671 14.094 59.9671 13.91V7.52H59.1811V8.414C58.9451 8.078 58.6451 7.816 58.2811 7.628C57.9211 7.436 57.5011 7.34 57.0211 7.34C56.4291 7.34 55.9211 7.49 55.4971 7.79C55.0731 8.09 54.7471 8.498 54.5191 9.014C54.2951 9.53 54.1831 10.11 54.1831 10.754C54.1831 11.402 54.2951 11.984 54.5191 12.5C54.7471 13.016 55.0751 13.426 55.5031 13.73C55.9351 14.03 56.4531 14.18 57.0571 14.18ZM57.1471 13.358C56.6991 13.358 56.3231 13.244 56.0191 13.016C55.7191 12.784 55.4931 12.472 55.3411 12.08C55.1931 11.688 55.1191 11.246 55.1191 10.754C55.1191 10.266 55.1931 9.826 55.3411 9.434C55.4891 9.042 55.7131 8.732 56.0131 8.504C56.3171 8.276 56.7011 8.162 57.1651 8.162C57.8411 8.162 58.3451 8.404 58.6771 8.888C59.0131 9.368 59.1811 9.99 59.1811 10.754C59.1811 11.254 59.1071 11.7 58.9591 12.092C58.8111 12.484 58.5871 12.794 58.2871 13.022C57.9871 13.246 57.6071 13.358 57.1471 13.358ZM61.6447 14H62.5267V10.766C62.5267 10.378 62.5707 9.992 62.6587 9.608C62.7507 9.22 62.9587 8.898 63.2827 8.642C63.5187 8.45 63.7747 8.34 64.0507 8.312C64.3307 8.28 64.5907 8.292 64.8307 8.348V7.52C64.5467 7.448 64.2247 7.446 63.8647 7.514C63.5047 7.578 63.1967 7.722 62.9407 7.946C62.7487 8.09 62.5807 8.29 62.4367 8.546V7.52H61.6447V14ZM67.5885 14.18C68.7205 14.18 69.5425 13.762 70.0545 12.926V14H70.8405V9.974C70.8405 9.734 70.8285 9.498 70.8045 9.266C70.7805 9.034 70.7285 8.824 70.6485 8.636C70.4765 8.216 70.1825 7.896 69.7665 7.676C69.3545 7.452 68.8525 7.34 68.2605 7.34C67.5485 7.34 66.9685 7.5 66.5205 7.82C66.0725 8.14 65.7725 8.59 65.6205 9.17L66.4785 9.422C66.6025 8.99 66.8165 8.674 67.1205 8.474C67.4285 8.274 67.8045 8.174 68.2485 8.174C68.8645 8.174 69.3045 8.318 69.5685 8.606C69.8325 8.89 69.9685 9.324 69.9765 9.908C69.6885 9.948 69.3705 9.99 69.0225 10.034C68.6785 10.078 68.3325 10.128 67.9845 10.184C67.6365 10.24 67.3165 10.304 67.0245 10.376C66.5405 10.504 66.1445 10.718 65.8365 11.018C65.5285 11.314 65.3745 11.728 65.3745 12.26C65.3745 12.604 65.4565 12.922 65.6205 13.214C65.7845 13.506 66.0305 13.74 66.3585 13.916C66.6905 14.092 67.1005 14.18 67.5885 14.18ZM67.6905 13.418C67.3425 13.418 67.0625 13.362 66.8505 13.25C66.6425 13.134 66.4905 12.988 66.3945 12.812C66.3025 12.632 66.2565 12.448 66.2565 12.26C66.2565 11.908 66.3745 11.644 66.6105 11.468C66.8465 11.292 67.1025 11.164 67.3785 11.084C67.7345 10.988 68.1485 10.91 68.6205 10.85C69.0925 10.79 69.5405 10.734 69.9645 10.682C69.9645 10.83 69.9585 11 69.9465 11.192C69.9385 11.38 69.9165 11.554 69.8805 11.714C69.7965 12.202 69.5645 12.608 69.1845 12.932C68.8085 13.256 68.3105 13.418 67.6905 13.418ZM72.3965 14H73.2845V9.818C73.2845 9.31 73.4225 8.904 73.6985 8.6C73.9745 8.292 74.3365 8.138 74.7845 8.138C75.2325 8.138 75.5925 8.288 75.8645 8.588C76.1405 8.884 76.2785 9.29 76.2785 9.806L76.2725 14H77.1425L77.1485 9.818C77.1485 9.414 77.2225 9.09 77.3705 8.846C77.5225 8.598 77.7145 8.418 77.9465 8.306C78.1785 8.194 78.4165 8.138 78.6605 8.138C79.0885 8.138 79.4405 8.282 79.7165 8.57C79.9965 8.854 80.1365 9.246 80.1365 9.746L80.1305 14H81.0125L81.0185 9.578C81.0185 8.894 80.8225 8.352 80.4305 7.952C80.0425 7.548 79.5205 7.346 78.8645 7.346C78.4325 7.346 78.0445 7.444 77.7005 7.64C77.3565 7.832 77.0905 8.098 76.9025 8.438C76.7265 8.082 76.4725 7.812 76.1405 7.628C75.8125 7.44 75.4365 7.346 75.0125 7.346C74.6285 7.346 74.2785 7.424 73.9625 7.58C73.6465 7.732 73.3885 7.94 73.1885 8.204V7.52H72.3965V14Z" fill="#2B353E" fill-opacity="0.7"/>
</svg>
