<svg width="196" height="83" viewBox="0 0 196 83" fill="none" xmlns="http://www.w3.org/2000/svg">
<g filter="url(#filter0_d)">
<rect x="20" y="10" width="156" height="43" rx="21.5" fill="#292929"/>
</g>
<path d="M58.12 37H65.56V35.192H60.048V31.936H64.6V30.128H60.048V27.288H65.56V25.48H58.12V37ZM67.4634 37H69.4154V32.56C69.4154 31.8613 69.514 31.3227 69.7114 30.944C69.914 30.56 70.17 30.296 70.4794 30.152C70.794 30.0027 71.114 29.928 71.4394 29.928C71.898 29.928 72.2634 30.0293 72.5354 30.232C72.8074 30.4293 73.0074 30.6827 73.1354 30.992C73.2687 31.296 73.354 31.6133 73.3914 31.944C73.434 32.2747 73.4554 32.5733 73.4554 32.84V37H75.4074V32.176C75.4074 31.9733 75.3887 31.704 75.3514 31.368C75.3194 31.032 75.2447 30.6773 75.1274 30.304C75.01 29.9307 74.8287 29.5787 74.5834 29.248C74.338 28.912 74.0047 28.64 73.5834 28.432C73.1674 28.2187 72.642 28.112 72.0074 28.112C71.3834 28.112 70.834 28.2213 70.3594 28.44C69.89 28.6533 69.498 28.9467 69.1834 29.32V28.36H67.4634V37ZM77.495 37H79.431V32.608C79.431 32.1067 79.5217 31.6613 79.703 31.272C79.8897 30.8827 80.1803 30.5813 80.575 30.368C80.8417 30.2133 81.1403 30.1227 81.471 30.096C81.8017 30.064 82.0977 30.0853 82.359 30.16V28.36C81.9697 28.3013 81.5697 28.3093 81.159 28.384C80.7483 28.4533 80.383 28.5973 80.063 28.816C79.8817 28.928 79.719 29.064 79.575 29.224C79.431 29.3787 79.3057 29.552 79.199 29.744V28.36H77.495V37ZM87.5454 37.24C88.4094 37.24 89.164 37.048 89.8094 36.664C90.4547 36.2747 90.956 35.7387 91.3134 35.056C91.676 34.368 91.8574 33.576 91.8574 32.68C91.8574 31.7893 91.6787 31.0027 91.3214 30.32C90.964 29.632 90.4627 29.0933 89.8174 28.704C89.172 28.3147 88.4147 28.12 87.5454 28.12C86.6974 28.12 85.9507 28.312 85.3054 28.696C84.66 29.08 84.156 29.6133 83.7934 30.296C83.4307 30.9787 83.2494 31.7733 83.2494 32.68C83.2494 33.5707 83.4254 34.36 83.7774 35.048C84.1347 35.7307 84.636 36.2667 85.2814 36.656C85.9267 37.0453 86.6814 37.24 87.5454 37.24ZM87.5454 35.432C86.804 35.432 86.2414 35.184 85.8574 34.688C85.4787 34.1867 85.2894 33.5173 85.2894 32.68C85.2894 31.864 85.4707 31.2027 85.8334 30.696C86.2014 30.184 86.772 29.928 87.5454 29.928C88.3027 29.928 88.8707 30.1787 89.2494 30.68C89.628 31.176 89.8174 31.8427 89.8174 32.68C89.8174 33.4907 89.628 34.152 89.2494 34.664C88.876 35.176 88.308 35.432 87.5454 35.432ZM93.78 37H95.708V25.24H93.78V37ZM98.2644 37H100.192V25.24H98.2644V37ZM105.792 37H107.744V28.88L113.088 37H115.04V25.48H113.088V33.6L107.744 25.48H105.792V37ZM121.092 37.24C121.956 37.24 122.711 37.048 123.356 36.664C124.002 36.2747 124.503 35.7387 124.86 35.056C125.223 34.368 125.404 33.576 125.404 32.68C125.404 31.7893 125.226 31.0027 124.868 30.32C124.511 29.632 124.01 29.0933 123.364 28.704C122.719 28.3147 121.962 28.12 121.092 28.12C120.244 28.12 119.498 28.312 118.852 28.696C118.207 29.08 117.703 29.6133 117.34 30.296C116.978 30.9787 116.796 31.7733 116.796 32.68C116.796 33.5707 116.972 34.36 117.324 35.048C117.682 35.7307 118.183 36.2667 118.828 36.656C119.474 37.0453 120.228 37.24 121.092 37.24ZM121.092 35.432C120.351 35.432 119.788 35.184 119.404 34.688C119.026 34.1867 118.836 33.5173 118.836 32.68C118.836 31.864 119.018 31.2027 119.38 30.696C119.748 30.184 120.319 29.928 121.092 29.928C121.85 29.928 122.418 30.1787 122.796 30.68C123.175 31.176 123.364 31.8427 123.364 32.68C123.364 33.4907 123.175 34.152 122.796 34.664C122.423 35.176 121.855 35.432 121.092 35.432ZM128.694 37H130.198L132.15 31.056L134.11 37H135.614L138.254 28.36H136.366L134.67 33.904L132.966 28.36H131.342L129.63 33.904L127.942 28.36L126.054 28.344L128.694 37Z" fill="#FAFAFA"/>
<defs>
<filter id="filter0_d" x="0" y="0" width="196" height="83" filterUnits="userSpaceOnUse" color-interpolation-filters="sRGB">
<feFlood flood-opacity="0" result="BackgroundImageFix"/>
<feColorMatrix in="SourceAlpha" type="matrix" values="0 0 0 0 0 0 0 0 0 0 0 0 0 0 0 0 0 0 127 0"/>
<feOffset dy="10"/>
<feGaussianBlur stdDeviation="10"/>
<feColorMatrix type="matrix" values="0 0 0 0 0 0 0 0 0 0 0 0 0 0 0 0 0 0 0.15 0"/>
<feBlend mode="normal" in2="BackgroundImageFix" result="effect1_dropShadow"/>
<feBlend mode="normal" in="SourceGraphic" in2="effect1_dropShadow" result="shape"/>
</filter>
</defs>
</svg>
