<svg width="65" height="19" viewBox="0 0 65 19" fill="none" xmlns="http://www.w3.org/2000/svg">
<path opacity="0.1" fill-rule="evenodd" clip-rule="evenodd" d="M0 9.5C0 4.52944 4.02944 0.5 9 0.5C13.9706 0.5 18 4.52944 18 9.5C18 14.4706 13.9706 18.5 9 18.5C4.02944 18.5 0 14.4706 0 9.5Z" fill="#D87E7E"/>
<path fill-rule="evenodd" clip-rule="evenodd" d="M8.73045 7.81534L8.74934 8.12676L8.43457 8.08862C7.28882 7.94245 6.28787 7.44672 5.438 6.61414L5.02251 6.20104L4.91549 6.5061C4.68886 7.18614 4.83365 7.90431 5.3058 8.38733C5.55761 8.65427 5.50095 8.6924 5.06658 8.53351C4.91549 8.48267 4.78329 8.44453 4.7707 8.4636C4.72663 8.50809 4.87772 9.08644 4.99733 9.31524C5.16101 9.63302 5.49466 9.94444 5.85979 10.1287L6.16826 10.2749L5.80313 10.2813C5.45059 10.2813 5.438 10.2876 5.47577 10.4211C5.60168 10.8342 6.09901 11.2727 6.653 11.4634L7.04331 11.5969L6.70336 11.8002C6.19973 12.0926 5.60798 12.2578 5.01622 12.2706C4.73293 12.2769 4.5 12.3023 4.5 12.3214C4.5 12.385 5.26803 12.7409 5.715 12.8807C7.0559 13.2938 8.64861 13.1158 9.84472 12.4104C10.6946 11.9083 11.5445 10.9105 11.9411 9.94444C12.1551 9.42964 12.3691 8.48902 12.3691 8.03778C12.3691 7.74543 12.388 7.70729 12.7406 7.35774C12.9483 7.15436 13.1435 6.93192 13.1812 6.86837C13.2442 6.74761 13.2379 6.74761 12.9168 6.85565C12.3817 7.04632 12.3062 7.0209 12.5706 6.7349C12.7657 6.53152 12.9987 6.1629 12.9987 6.05486C12.9987 6.03579 12.9042 6.06757 12.7972 6.12477C12.6839 6.18832 12.4321 6.28366 12.2432 6.34086L11.9033 6.4489L11.5948 6.23917C11.4248 6.12477 11.1856 5.99766 11.0597 5.95953C10.7387 5.87055 10.2476 5.88326 9.95804 5.98495C9.17112 6.27095 8.67379 7.00819 8.73045 7.81534Z" fill="#D87E7E"/>
<path d="M29.138 14H30.02V6.206H33.038V5.36H26.12V6.206H29.138V14ZM34.6653 14H35.4333L37.0473 8.84L38.6673 14H39.4353L41.4153 7.52H40.5393L38.9913 12.554L37.4493 7.52H36.6453L35.1033 12.554L33.5673 7.52L32.6853 7.514L34.6653 14ZM42.6163 6.29H43.4983V5.3H42.6163V6.29ZM42.6163 14H43.4983V7.52H42.6163V14ZM48.825 14V13.226C48.361 13.302 47.971 13.314 47.655 13.262C47.343 13.21 47.115 13.05 46.971 12.782C46.895 12.642 46.853 12.482 46.845 12.302C46.841 12.118 46.839 11.89 46.839 11.618V8.276H48.825V7.52H46.839V5.72H45.963V7.52H44.577V8.276H45.963V11.654C45.963 11.97 45.967 12.252 45.975 12.5C45.987 12.748 46.051 12.99 46.167 13.226C46.311 13.514 46.521 13.726 46.797 13.862C47.077 13.998 47.393 14.074 47.745 14.09C48.101 14.106 48.461 14.076 48.825 14ZM52.911 14V13.226C52.447 13.302 52.057 13.314 51.741 13.262C51.429 13.21 51.201 13.05 51.057 12.782C50.981 12.642 50.939 12.482 50.931 12.302C50.927 12.118 50.925 11.89 50.925 11.618V8.276H52.911V7.52H50.925V5.72H50.049V7.52H48.663V8.276H50.049V11.654C50.049 11.97 50.053 12.252 50.061 12.5C50.073 12.748 50.137 12.99 50.253 13.226C50.397 13.514 50.607 13.726 50.883 13.862C51.163 13.998 51.479 14.074 51.831 14.09C52.187 14.106 52.547 14.076 52.911 14ZM56.9336 14.18C57.5616 14.18 58.1236 14.026 58.6196 13.718C59.1196 13.41 59.4976 12.972 59.7536 12.404L58.9316 12.086C58.5196 12.918 57.8416 13.334 56.8976 13.334C56.2496 13.334 55.7416 13.132 55.3736 12.728C55.0096 12.324 54.8096 11.75 54.7736 11.006H59.8796C59.9116 9.862 59.6616 8.966 59.1296 8.318C58.6016 7.666 57.8576 7.34 56.8976 7.34C56.2736 7.34 55.7316 7.48 55.2716 7.76C54.8156 8.04 54.4616 8.438 54.2096 8.954C53.9576 9.47 53.8316 10.082 53.8316 10.79C53.8316 11.474 53.9576 12.07 54.2096 12.578C54.4656 13.086 54.8256 13.48 55.2896 13.76C55.7576 14.04 56.3056 14.18 56.9336 14.18ZM56.9216 8.15C58.1416 8.15 58.8196 8.856 58.9556 10.268H54.7916C54.8596 9.584 55.0756 9.06 55.4396 8.696C55.8036 8.332 56.2976 8.15 56.9216 8.15ZM61.2111 14H62.0931V10.766C62.0931 10.378 62.1371 9.992 62.2251 9.608C62.3171 9.22 62.5251 8.898 62.8491 8.642C63.0851 8.45 63.3411 8.34 63.6171 8.312C63.8971 8.28 64.1571 8.292 64.3971 8.348V7.52C64.1131 7.448 63.7911 7.446 63.4311 7.514C63.0711 7.578 62.7631 7.722 62.5071 7.946C62.3151 8.09 62.1471 8.29 62.0031 8.546V7.52H61.2111V14Z" fill="#2B353E" fill-opacity="0.7"/>
</svg>
