<svg width="74" height="19" viewBox="0 0 74 19" fill="none" xmlns="http://www.w3.org/2000/svg">
<path opacity="0.1" fill-rule="evenodd" clip-rule="evenodd" d="M0 9.5C0 4.52944 4.02944 0.5 9 0.5C13.9706 0.5 18 4.52944 18 9.5C18 14.4706 13.9706 18.5 9 18.5C4.02944 18.5 0 14.4706 0 9.5Z" fill="#D87E7E"/>
<path fill-rule="evenodd" clip-rule="evenodd" d="M12.7506 6.40595C13.1637 6.5193 13.489 6.85328 13.5994 7.27741C13.8 8.04609 13.8 9.64995 13.8 9.64995C13.8 9.64995 13.8 11.2538 13.5994 12.0225C13.489 12.4466 13.1637 12.7806 12.7506 12.894C12.002 13.1 9.00001 13.1 9.00001 13.1C9.00001 13.1 5.99799 13.1 5.24936 12.894C4.83628 12.7806 4.51098 12.4466 4.40058 12.0225C4.20001 11.2538 4.20001 9.64995 4.20001 9.64995C4.20001 9.64995 4.20001 8.04609 4.40058 7.27741C4.51098 6.85328 4.83628 6.5193 5.24936 6.40595C5.99799 6.19995 9.00001 6.19995 9.00001 6.19995C9.00001 6.19995 12.002 6.19995 12.7506 6.40595ZM8.10002 8.29992V11.2999L10.5 9.79998L8.10002 8.29992Z" fill="#D87E7E"/>
<path d="M28.898 14H29.786V10.382L32.672 5.36H31.652L29.342 9.374L27.02 5.36H26L28.898 10.382V14ZM35.253 14.18C35.893 14.18 36.441 14.036 36.897 13.748C37.357 13.46 37.709 13.06 37.953 12.548C38.201 12.032 38.325 11.434 38.325 10.754C38.325 10.086 38.203 9.496 37.959 8.984C37.719 8.468 37.369 8.066 36.909 7.778C36.453 7.486 35.901 7.34 35.253 7.34C34.621 7.34 34.075 7.484 33.615 7.772C33.159 8.056 32.807 8.454 32.559 8.966C32.311 9.478 32.187 10.074 32.187 10.754C32.187 11.422 32.307 12.014 32.547 12.53C32.791 13.046 33.141 13.45 33.597 13.742C34.057 14.034 34.609 14.18 35.253 14.18ZM35.253 13.334C34.553 13.334 34.023 13.1 33.663 12.632C33.303 12.16 33.123 11.534 33.123 10.754C33.123 9.998 33.297 9.382 33.645 8.906C33.993 8.426 34.529 8.186 35.253 8.186C35.969 8.186 36.503 8.42 36.855 8.888C37.211 9.352 37.389 9.974 37.389 10.754C37.389 11.518 37.213 12.14 36.861 12.62C36.509 13.096 35.973 13.334 35.253 13.334ZM42.1266 14.162C42.5906 14.162 43.0086 14.074 43.3806 13.898C43.7566 13.718 44.0646 13.452 44.3046 13.1V14H45.0966V7.52H44.2146V10.976C44.2146 11.708 44.0506 12.282 43.7226 12.698C43.3946 13.114 42.9186 13.322 42.2946 13.322C41.8426 13.322 41.4786 13.214 41.2026 12.998C40.9266 12.778 40.7266 12.48 40.6026 12.104C40.4786 11.728 40.4166 11.302 40.4166 10.826V7.52H39.5286V11.084C39.5286 11.448 39.5726 11.812 39.6606 12.176C39.7526 12.54 39.8986 12.872 40.0986 13.172C40.2986 13.472 40.5646 13.712 40.8966 13.892C41.2326 14.072 41.6426 14.162 42.1266 14.162ZM49.0716 14H49.9536V6.206H52.9716V5.36H46.0536V6.206H49.0716V14ZM55.8141 14.162C56.2781 14.162 56.6961 14.074 57.0681 13.898C57.4441 13.718 57.7521 13.452 57.9921 13.1V14H58.7841V7.52H57.9021V10.976C57.9021 11.708 57.7381 12.282 57.4101 12.698C57.0821 13.114 56.6061 13.322 55.9821 13.322C55.5301 13.322 55.1661 13.214 54.8901 12.998C54.6141 12.778 54.4141 12.48 54.2901 12.104C54.1661 11.728 54.1041 11.302 54.1041 10.826V7.52H53.2161V11.084C53.2161 11.448 53.2601 11.812 53.3481 12.176C53.4401 12.54 53.5861 12.872 53.7861 13.172C53.9861 13.472 54.2521 13.712 54.5841 13.892C54.9201 14.072 55.3301 14.162 55.8141 14.162ZM60.4551 14H61.2471V13.094C61.4791 13.43 61.7731 13.696 62.1291 13.892C62.4851 14.084 62.8991 14.18 63.3711 14.18C63.9791 14.18 64.4971 14.03 64.9251 13.73C65.3531 13.426 65.6791 13.016 65.9031 12.5C66.1311 11.984 66.2451 11.402 66.2451 10.754C66.2451 10.11 66.1311 9.53 65.9031 9.014C65.6791 8.498 65.3551 8.09 64.9311 7.79C64.5071 7.49 63.9991 7.34 63.4071 7.34C62.9591 7.34 62.5611 7.424 62.2131 7.592C61.8691 7.756 61.5791 7.986 61.3431 8.282V5.36H60.4551V14ZM63.2811 13.358C62.8211 13.358 62.4411 13.246 62.1411 13.022C61.8411 12.794 61.6171 12.484 61.4691 12.092C61.3211 11.7 61.2471 11.254 61.2471 10.754C61.2471 9.99 61.4131 9.368 61.7451 8.888C62.0811 8.404 62.5871 8.162 63.2631 8.162C63.7271 8.162 64.1091 8.276 64.4091 8.504C64.7131 8.732 64.9391 9.042 65.0871 9.434C65.2351 9.826 65.3091 10.266 65.3091 10.754C65.3091 11.246 65.2331 11.688 65.0811 12.08C64.9331 12.472 64.7091 12.784 64.4091 13.016C64.1091 13.244 63.7331 13.358 63.2811 13.358ZM70.3047 14.18C70.9327 14.18 71.4947 14.026 71.9907 13.718C72.4907 13.41 72.8687 12.972 73.1247 12.404L72.3027 12.086C71.8907 12.918 71.2127 13.334 70.2687 13.334C69.6207 13.334 69.1127 13.132 68.7447 12.728C68.3807 12.324 68.1807 11.75 68.1447 11.006H73.2507C73.2827 9.862 73.0327 8.966 72.5007 8.318C71.9727 7.666 71.2287 7.34 70.2687 7.34C69.6447 7.34 69.1027 7.48 68.6427 7.76C68.1867 8.04 67.8327 8.438 67.5807 8.954C67.3287 9.47 67.2027 10.082 67.2027 10.79C67.2027 11.474 67.3287 12.07 67.5807 12.578C67.8367 13.086 68.1967 13.48 68.6607 13.76C69.1287 14.04 69.6767 14.18 70.3047 14.18ZM70.2927 8.15C71.5127 8.15 72.1907 8.856 72.3267 10.268H68.1627C68.2307 9.584 68.4467 9.06 68.8107 8.696C69.1747 8.332 69.6687 8.15 70.2927 8.15Z" fill="#2B353E" fill-opacity="0.7"/>
</svg>
